# xmcd
#
# Track frame offsets: 
#        150
#        18162
#        36919
#        55470
#        81497
#        84325
#        116043
#        138217
#        158651
#        178862
#        196703
#        214469
#        235741
#        258476
#
# Disc length: 3735 seconds
#
# Revision: 2
# Processed by: cddbd v1.5.2PL0 Copyright (c) Steve Scherf et al.
# Submitted via: ExactAudioCopy v1.3
#
DISCID=bd0e950e
DTITLE=Bobby Brown - Gold [CD1]
DYEAR=2009
DGENRE=R&B
TTITLE0=Mr. Telephone Man (feat. New Edition)
TTITLE1=Girlfriend (Single Version)
TTITLE2=Girl Next Door (Single Version)
TTITLE3=Seventeen (Radio Edit)
TTITLE4=Cruel Prelude
TTITLE5=Don't Be Cruel (LP Version) - Cruel Reprise
TTITLE6=My Prerogative
TTITLE7=Roni (Single Version)
TTITLE8=Rock Wit'cha (Previously Unreleased Quiet Storm Mix)
TTITLE9=Every Little Step
TTITLE10=I'll Be Good to You (Previously Unreleased 7'' Mix)
TTITLE11=All Day All Night
TTITLE12=We're Back
TTITLE13=On Our Own
EXTD=
EXTT0=
EXTT1=
EXTT2=
EXTT3=
EXTT4=
EXTT5=
EXTT6=
EXTT7=
EXTT8=
EXTT9=
EXTT10=
EXTT11=
EXTT12=
EXTT13=
PLAYORDER=
